<svg xmlns="http://www.w3.org/2000/svg" viewBox="0 0 488.9 402.46"><defs><style>.cls-1{fill:#57c1ab;opacity:0.1;}.cls-2{fill:#fff;}</style></defs><title>green-deed-icon</title><g id="Layer_2" data-name="Layer 2"><g id="Layer_1-2" data-name="Layer 1"><path class="cls-1" d="M244.25,388.08v.3q72.86,0,145.73,0c18.36,0,32.19-10.1,34.79-25.29.81-4.72,1.42-9.48,2.21-14.2Q449.57,212.78,472.2,76.7c3.28-19.71-4.39-31.08-24.79-36.24A823.47,823.47,0,0,0,233.18,15.33,804.62,804.62,0,0,0,38.86,41.4C21.56,46,13.73,58,16.52,74.78q23.72,142.5,47.46,285c3.2,19.22,14.51,28.27,35.32,28.28Q171.77,388.1,244.25,388.08Z"/><path class="cls-2" d="M.51,73.88c-3.33-20.94,10-41.1,32.75-46.46,30.46-7.17,61.18-13.71,92.15-18.57C183.61-.27,242.35-1.94,301.2,2a831.87,831.87,0,0,1,154,24.86c23.5,6.12,36.84,26.26,33,48.9q-6.06,35.82-11.91,71.67c-.29,1.75-25.13,149.86-28.08,168.09-2.67,16.48-5,33-7.9,49.45-3.83,22-23.28,37.42-47,37.44q-149.34.07-298.67,0c-22.94,0-42.29-16.11-45.83-37.81q-8.25-50.43-16.53-100.83c-.14-.88-.4-1.75-.84-3.6M244.28,387.76v.29q72.87,0,145.73,0c18.36,0,32.2-10.1,34.79-25.29.81-4.72,1.43-9.48,2.21-14.21q22.59-136.1,45.22-272.18c3.29-19.72-4.38-31.08-24.79-36.24A823,823,0,0,0,233.21,15,805.11,805.11,0,0,0,38.89,41.06C21.58,45.61,13.75,57.65,16.55,74.45Q40.25,217,64,359.47c3.2,19.22,14.51,28.27,35.32,28.28Q171.8,387.78,244.28,387.76Z"/><path class="cls-2" d="M188.79,65.61S64.07,217.52,158.43,287.31c74.35,55,98-1.19,104.67-27.5l22.15,65.53,22.25-8.21L276,255.07C300,270,358.23,296,372.52,208.31,390.65,97,188.79,65.61,188.79,65.61Zm15.55,47.07-7.14-17L204.57,93l7.14,17,47.22-4.82.86,7.37-45.07,4.6,7.49,17.79L298.87,132l.32,7.41-73.91,2.76,9.25,22,.6,1.46,97.68,3.75-.2,7.41-93.7-2.21,8.86,21L344.49,211l-1.33,7.31-92-14.63,14.06,33.42-7.37,2.72L243.8,206.42l-56.61,69.46-6.3-4.5,59.51-73-8.86-21.05-66.89,61.47-5.55-5.3,68.72-65.14-.66-1.44-9.25-22-56,45.19-5.17-5.62,58.14-46.88-7.49-17.79-36.3,25.43-4.75-5.94"/></g></g></svg>