<svg xmlns="http://www.w3.org/2000/svg" viewBox="0 0 488.9 402.46"><defs><style>.cls-1{fill:#4182c3;opacity:0.1;}.cls-2{fill:#fff;}</style></defs><title>community-spirit-deed-icon</title><g id="Layer_2" data-name="Layer 2"><g id="Layer_1-2" data-name="Layer 1"><polygon class="cls-1" points="78.4 53.79 57.64 234.17 122.06 315.03 207.95 381.6 242.6 397.34 308.15 362.27 381.87 296.42 431.26 214.83 418.38 136.06 406.21 50.92 248.03 5.12 78.4 53.79"/><path class="cls-2" d="M477.46,169.89a94,94,0,0,0,11.44,2.25c-10.44,12.29-19.36,24.18-29.74,34.61-9.83,9.87-13,20-9.91,33.8,3.2,14.2,3.68,29,5.46,44.42-10.36-2.81-19.92-5.45-29.51-8-5.44-1.43-11.68-4.86-16.19-3.34s-7.27,8-10.6,12.5C361.3,336,313.52,372.57,257.82,399.29c-9.12,4.38-18.27,4.14-27.34-.23C171.93,370.87,122.37,331.79,84.9,278.25c-3.26-4.67-6.29-5.49-11.46-4C60.79,278,48,281.24,34.28,284.92c1.41-12.75,2.7-24.86,4.1-37,.7-6,1-12.11,2.53-17.91,1.64-6.28-.38-10.53-4.5-15.07C25.07,202.44,14.16,189.52,3.1,176.74c-.9-1-1.68-2.17-3.1-4,13.57-3.73,26.48-7.3,39.4-10.84,2.91-.8,5.84-1.52,8.78-2.23,11.91-2.88,11.74-2.89,13-14.75q4.66-43.8,9.63-87.58C72,47.11,77.86,40.54,87.89,38c47.92-12.27,95.78-24.8,143.84-36.49a56.11,56.11,0,0,1,25.55,0C305.33,13.2,353.16,25.88,401.13,38c10.51,2.66,15.84,9.63,17,19.46,3.68,30.76,6.85,61.57,10,92.39.51,5,1.78,7.56,7.39,8.8,12.52,2.77,18,4.07,30.36,7.7C467.32,166.75,477.46,169.89,477.46,169.89ZM67,211.4c-.2,11.06,2.16,17.61,11.71,33.73,37.11,62.61,89.1,108.85,154.25,140.79,8,3.92,14.93,4,22.88.12,67.06-33,120.16-80.85,157.37-145.93,5.23-9.14,9.87-18.48,8.65-29.57q-8.24-75-16.38-150c-.61-5.62-3-8.91-8.93-10.41C349.31,38.24,302.23,25.87,255,14.19a45.08,45.08,0,0,0-20.79,0c-47.27,11.65-94.38,24-141.59,35.92-5.7,1.44-8.46,4.36-9.07,10.25-2.91,27.81-6.07,55.59-9.14,83.38C71.86,166.71,69.34,189.71,67,211.4Z"/><g id="E7qCRt"><path class="cls-2" d="M242,99.83C228.55,85.44,207.27,77.7,185.11,79c-30.06,1.72-56.81,23.52-63.63,52.38-5.47,23.14-1.12,44.74,11.48,64.77a82.44,82.44,0,0,0,15.58,17.62l18.35-18.26c7.36-7.33,16.12-9.4,25.75-5.83,9.31,3.45,14.68,10.43,15.71,20.49.12,1.14.32,2.27.48,3.45,7.26.12,13.29,2.32,18.26,7.2s6.81,11.35,7.18,18.09c16,1.53,24.75,9.86,25.61,25.88a25.45,25.45,0,0,1,20.8,10,18.61,18.61,0,0,0,5.05,4,11.34,11.34,0,0,0,14.89-2.68c4.18-5.05,3.89-11.51-1.08-16.53q-25.47-25.68-51.07-51.22c-3.76-3.77-4.1-7.09-1.11-9.95s6.07-2.44,9.68,1.15q6.49,6.48,13,13c12.82,12.8,25.59,25.64,38.46,38.39,5.57,5.52,13.17,5.15,18-.66,4.23-5.1,3.58-11.41-1.73-16.72Q299.28,208,273.84,182.59c-3.35-3.35-3.68-6.75-1.07-9.47s6.35-2.44,9.72.92q25.47,25.41,50.95,50.79c5.55,5.52,12.94,5.71,17.91.62s4.51-12-1-17.56q-35.61-35.65-71.25-71.26c-.73-.73-1.53-1.39-2.79-2.52a9.23,9.23,0,0,1-1.06,1.77c-9.1,9.06-17.92,18.41-27.38,27.07-18.46,16.89-47.82,14-63.1-6.18q14.2-14.09,28.5-28.29T242,99.83Zm121.1,103.3c.94-1.18,1.95-2.34,2.83-3.6a74,74,0,0,0,12.31-29.64c5.77-32.14-11.34-66.25-40.38-78-30.71-12.4-59.47-6.88-84.32,14.28-15.75,13.4-29.63,29-44.35,43.61-2.24,2.22-4.46,4.47-6.74,6.76,11.75,8.23,28.42,6.34,38.65-4q14.84-14.94,29.77-29.76c4.5-4.46,7.31-4.4,11.89.15,6.81,6.75,13.56,13.56,20.36,20.33Zm-169,64.23c1.3-.66,4.23-1.44,6.19-3.27,6.31-5.85,12.36-12,18.33-18.22,4.6-4.79,4.34-11.74-.31-16.46a11.58,11.58,0,0,0-16.48-.31c-6.2,6-12.25,12.12-18.2,18.35A10.65,10.65,0,0,0,181.48,260C183.64,264.69,187.42,267.06,194.09,267.36Zm54.08-3.46c-.76-5.37-3.17-8.94-7.38-11.14S232,250.63,228.38,254c-6.65,6.18-13.15,12.57-19.31,19.24-4.59,5-3.93,12,.84,16.43a11.68,11.68,0,0,0,16.51-.24c5.85-5.65,11.71-11.31,17.2-17.3C245.67,269.84,246.68,266.66,248.17,263.9Zm-17.19,42c.67,5.74,3.3,9.33,7.89,11.55a11.26,11.26,0,0,0,12.95-2.32c5.73-5.63,11.38-11.34,17.08-17,5.27-5.22,5.67-12,1-17-5.15-5.39-12-5.53-17.46-.18-5.76,5.6-11.56,11.18-17,17.08C233.43,300.16,232.43,303.21,231,305.85Zm-76.79-76.69c.68,5.62,3.24,9.25,7.86,11.41A11,11,0,0,0,175,238.33c6-6,12.11-11.92,18-18a11.35,11.35,0,0,0-.22-16.41,11.62,11.62,0,0,0-16.49-.43c-6.21,6-12.34,12-18.19,18.36C156.24,223.77,155.45,226.68,154.19,229.16Z"/></g></g></g></svg>