<svg id="Layer_1" data-name="Layer 1" xmlns="http://www.w3.org/2000/svg" xmlns:xlink="http://www.w3.org/1999/xlink" viewBox="0 0 540.34 491.11"><defs><style>.cls-1{fill:none;}.cls-15,.cls-2{fill:#0d3048;}.cls-2{opacity:0.1;}.cls-3{fill:#79c8d0;}.cls-4{fill:#2facb5;}.cls-5{fill:#fff;}.cls-6{fill:#158487;}.cls-7{fill:#693f17;}.cls-8{fill:#845a31;}.cls-10,.cls-11,.cls-9{fill:#979797;}.cls-11,.cls-9{stroke:#979797;stroke-miterlimit:10;stroke-width:3px;}.cls-9{opacity:0.36;}.cls-12{clip-path:url(#clip-path);}.cls-13{fill:#fbd5b7;}.cls-14{fill:#f9bd8d;}</style><clipPath id="clip-path"><path class="cls-1" d="M437.6,168.76l27.66-3.61c-2.85,10.55-5.75,20.2-7.95,30a14.14,14.14,0,0,0,1.36,9.12c4.89,8.83,10.38,17.33,16,26.59-8.5,1.27-16.16,2.61-23.88,3.49-3.66.42-4.46,1.77-3.91,5.31,2.52,16.41,4.54,32.9,7.22,49.28,3.25,19.85-3.46,36.59-15.48,51.68-16.7,21-38.11,36.31-60.73,50.1-30.29,18.47-62.29,33.42-95.43,46-7.8,3-15.81,3.4-23.53.44-41.48-15.94-81.69-34.49-117.87-60.62a276.37,276.37,0,0,1-32.39-27.8c-19.72-19.52-27.42-42.81-21-70.65,3.18-13.81,4.1-28.14,6.13-42.84l-28.21-4.43c5.61-9.3,11.08-17.82,15.91-26.69a14.1,14.1,0,0,0,1.2-9.11c-2.19-9.68-5-19.21-7.93-29.83l28.31,3.63c1.85-13.71,3.62-26.83,5.4-39.95,1.15-8.52,2.22-17.05,3.49-25.56,1.2-8.07,5.73-12.12,13.9-12.09,10.94,0,21.88.61,32.81.6C191.4,91.8,222.32,85,250,66.89c5-3.29,28.09,72.74,32.58,68.7s-10.07-84.8-6-80.5c17,17.94,38.76,26.5,62.2,31.7s47,4.44,70.66,4.4c14.65,0,17.36,2.24,19.37,16.56,2.71,19.34,5.32,38.71,8,58.06A29.68,29.68,0,0,0,437.6,168.76Z"/></clipPath></defs><title>easter_egg</title><polygon class="cls-2" points="270.17 58.96 223.74 88.24 120.68 98.6 91.04 298.64 109.7 343.16 200.57 406.59 270.05 433.42 365.84 392.56 442.01 327.91 446.12 270.59 439.03 201.67 420.73 99.82 346.33 94.94 295.1 83.97 270.17 58.96"/><circle class="cls-3" cx="358.99" cy="170.61" r="58.77"/><circle class="cls-4" cx="358.99" cy="170.61" r="45.03"/><circle class="cls-5" cx="358.99" cy="170.61" r="38.06"/><rect class="cls-6" x="320.02" y="132.67" width="13.23" height="24.84" rx="5.08" ry="5.08" transform="matrix(-0.66, 0.75, -0.75, -0.66, 650.71, -5.63)"/><circle class="cls-6" cx="358.99" cy="170.61" r="35.47"/><circle class="cls-7" cx="358.99" cy="170.61" r="31.23"/><path class="cls-8" d="M386.19,165.39s1.42-20-24-21.34A35.64,35.64,0,0,1,386.19,165.39Z"/><polygon class="cls-9" points="180.55 160.52 310.45 156.01 319.46 343.18 175.98 348.38 180.55 160.52"/><polygon class="cls-5" points="177.55 156.96 309.45 152.46 318.46 341.62 174.98 346.82 177.55 156.96"/><rect class="cls-10" x="192.87" y="147.22" width="4.15" height="16.98" rx="1.59" ry="1.59" transform="translate(-5.16 6.69) rotate(-1.94)"/><rect class="cls-10" x="206.75" y="146.72" width="4.15" height="16.98" rx="1.59" ry="1.59" transform="translate(-5.14 7.16) rotate(-1.94)"/><rect class="cls-10" x="220.64" y="146.29" width="4.15" height="16.98" rx="1.59" ry="1.59" transform="translate(-5.12 7.63) rotate(-1.94)"/><rect class="cls-10" x="234.53" y="145.79" width="4.15" height="16.98" rx="1.59" ry="1.59" transform="translate(-5.09 8.1) rotate(-1.94)"/><rect class="cls-10" x="248.41" y="145.36" width="4.15" height="16.98" rx="1.59" ry="1.59" transform="translate(-5.07 8.57) rotate(-1.94)"/><rect class="cls-10" x="262.3" y="144.85" width="4.15" height="16.98" rx="1.59" ry="1.59" transform="matrix(1, -0.03, 0.03, 1, -5.04, 9.04)"/><rect class="cls-10" x="276.18" y="144.43" width="4.15" height="16.98" rx="1.59" ry="1.59" transform="translate(-5.02 9.51) rotate(-1.94)"/><rect class="cls-10" x="290.07" y="143.92" width="4.15" height="16.98" rx="1.59" ry="1.59" transform="translate(-5 9.98) rotate(-1.94)"/><polygon class="cls-11" points="195.79 183.35 295.83 178.75 295.83 183.35 196.11 187.58 195.79 183.35"/><polygon class="cls-11" points="195.79 196.28 295.83 191.67 295.83 196.28 196.11 200.5 195.79 196.28"/><polygon class="cls-11" points="195.79 209.21 295.83 204.6 295.83 209.21 196.11 213.43 195.79 209.21"/><polygon class="cls-11" points="195.79 222.13 295.83 217.52 295.83 222.13 196.11 226.36 195.79 222.13"/><polygon class="cls-11" points="195.79 235.06 295.83 230.45 295.83 235.06 196.11 239.28 195.79 235.06"/><polygon class="cls-11" points="195.79 247.98 295.83 243.38 295.83 247.98 196.11 252.21 195.79 247.98"/><polygon class="cls-11" points="195.79 260.91 295.83 256.3 295.83 260.91 196.11 265.13 195.79 260.91"/><polygon class="cls-11" points="195.79 273.84 295.83 269.23 295.83 273.84 196.11 278.06 195.79 273.84"/><polygon class="cls-11" points="195.79 286.76 295.83 282.15 295.83 286.76 196.11 290.99 195.79 286.76"/><g class="cls-12"><path class="cls-13" d="M105.05,396.61s6.73-7,11.53-25.6,6.83-44.41,21.76-45.77c7.89-.72,6.18-5.54,14.59-6s6.54,4,10.59,3c6.25-1.69,10.9-13.55,21.49-12.46s8.88,10.43,8.88,10.43,29.75-62.3,40.65-59.34-1.71,29.13-18.38,59-13.55,48.75-13.55,48.75,9.19-5.14,13.09-11.06,9.71-19.31,22.92-19,1.74,11.53,0,14.17-2.52,9-3.61,11.37-9.35,10.28-11.84,14.65-4.36,15.1-14.95,18.69S105.05,396.61,105.05,396.61Z"/><path class="cls-13" d="M331.2,277.77s-5.2-9.64-6.42-25.54-3.06-29.65-15-28.43-7.95,18.65-6.12,40.36-8.86,36.18-4.58,54.78,34.85,56.5,38.21,70.87a113.66,113.66,0,0,0,8.26,23.85h71.24s-7.95-12.23-23.24-27.82-34.55-39.14-32.41-70,9.68-42.49-3.72-53.8S335.59,231.76,319,231.14l4.28,42.19"/></g><path class="cls-14" d="M331.92,279.4a107.86,107.86,0,0,1-5.51-14.25,91.58,91.58,0,0,1-3.35-14.95c-.28-2.56-.4-5.1-.62-7.62s-.51-5-.91-7.53a21,21,0,0,0-2.33-7.1,9.25,9.25,0,0,0-2.52-2.73,12.56,12.56,0,0,0-3.46-1.5,11.16,11.16,0,0,1,3.6,1.28,9.5,9.5,0,0,1,2.79,2.68,21.43,21.43,0,0,1,2.67,7.22c1,5,1.19,10.18,1.78,15.18a99.38,99.38,0,0,0,3.08,14.85c.67,2.45,1.42,4.88,2.23,7.28S331,277,331.92,279.4Z"/><path class="cls-15" d="M437.6,168.76l27.66-3.61c-2.85,10.55-5.75,20.2-7.95,30a14.14,14.14,0,0,0,1.36,9.12c4.89,8.83,10.38,17.33,16,26.59-8.5,1.27-16.16,2.61-23.88,3.49-3.66.42-4.46,1.77-3.91,5.31,2.52,16.41,4.54,32.9,7.22,49.28,3.25,19.85-3.46,36.59-15.48,51.68-16.7,21-38.11,36.31-60.73,50.1-30.29,18.47-62.29,33.42-95.43,46-7.8,3-15.81,3.4-23.53.44-41.48-15.94-81.69-34.49-117.87-60.62a276.37,276.37,0,0,1-32.39-27.8c-19.72-19.52-27.42-42.81-21-70.65,3.18-13.81,4.1-28.14,6.13-42.84l-28.21-4.43c5.61-9.3,11.08-17.82,15.91-26.69a14.1,14.1,0,0,0,1.2-9.11c-2.19-9.68-5-19.21-7.93-29.83l28.31,3.63c1.85-13.71,3.62-26.83,5.4-39.95,1.15-8.52,2.22-17.05,3.49-25.56,1.2-8.07,5.73-12.12,13.9-12.09,10.94,0,21.88.61,32.81.6C191.4,91.8,222.32,85,250,66.89c5-3.29,9.21-7.81,13.7-11.85s8.81-4.25,12.88.05c17,17.94,38.76,26.5,62.2,31.7s47,4.44,70.66,4.4c14.65,0,17.36,2.24,19.37,16.56,2.71,19.34,5.32,38.71,8,58.06A29.68,29.68,0,0,0,437.6,168.76ZM270,67c-25.9,23.93-57.59,32.31-90.89,35.55-16.26,1.59-32.76.9-49.15.88-4.3,0-5.7,1.51-6.25,5.54q-12.44,91.79-25.19,183.51a44.68,44.68,0,0,0,4.79,27.18c8,15.92,20.59,28,34.37,38.72C175.57,387.81,218.42,408.12,263,425c4.63,1.75,11.12,1.23,15.9-.54a525.7,525.7,0,0,0,89.31-42.52c22.86-13.75,44.65-28.89,61.32-50.24,10.24-13.13,14.37-27.44,11.72-44.38-5.77-36.85-10.53-73.86-15.64-110.81-3-21.86-6.15-43.72-8.76-65.64-.71-6-3-7.72-8.78-7.43-9.36.46-18.76.16-28.15.06C339.63,103.07,301.93,94.74,270,67Z"/></svg>