<svg id="Layer_1" data-name="Layer 1" xmlns="http://www.w3.org/2000/svg" xmlns:xlink="http://www.w3.org/1999/xlink" viewBox="0 0 540.34 491.11"><defs><style>.cls-1{fill:none;}.cls-11,.cls-2{fill:#0d3048;}.cls-2{opacity:0.1;}.cls-3{clip-path:url(#clip-path);}.cls-4{fill:#fcddd0;}.cls-5{fill:#eabdad;}.cls-6{fill:#f5a487;opacity:0.71;}.cls-7{fill:#f296a9;}.cls-8{fill:#e88099;}.cls-9{fill:#fff;}.cls-10{fill:#4c3a34;}</style><clipPath id="clip-path"><path class="cls-1" d="M437.54,168.76l27.66-3.61c-2.85,10.55-5.75,20.2-7.95,30a14.14,14.14,0,0,0,1.36,9.12c4.89,8.83,10.38,17.33,16,26.59-8.5,1.27-16.16,2.61-23.88,3.49-3.66.42-4.46,1.77-3.91,5.31,2.52,16.41,4.54,32.9,7.22,49.28,3.26,19.85-3.46,36.59-15.48,51.68-16.7,21-38.11,36.31-60.73,50.1-30.29,18.47-62.29,33.42-95.43,46-7.8,3-15.81,3.4-23.53.44-41.48-15.94-81.69-34.49-117.87-60.62a276.37,276.37,0,0,1-32.39-27.8c-19.72-19.52-27.42-42.81-21-70.65,3.18-13.81,4.1-28.14,6.14-42.84l-28.22-4.43c5.61-9.3,11.08-17.82,15.92-26.69A14.16,14.16,0,0,0,82.69,195c-2.19-9.68-5-19.21-7.92-29.83l28.3,3.63c1.85-13.71,3.62-26.83,5.4-39.95,1.15-8.52,2.22-17.05,3.49-25.56,1.2-8.07,5.73-12.12,13.91-12.09,10.93,0,21.87.61,32.8.6,32.67,0,63.59-6.77,91.28-24.92,5-3.29,9.21-7.81,13.7-11.85s8.81-4.25,12.88.05c17,17.94,38.76,26.5,62.2,31.7s47,4.44,70.66,4.4c14.65,0,17.36,2.24,19.37,16.56,2.71,19.34,5.32,38.71,8,58.06A29.68,29.68,0,0,0,437.54,168.76Z"/></clipPath></defs><title>easter_egg</title><polygon class="cls-2" points="270.23 58.96 223.8 88.24 120.74 98.6 91.1 298.64 109.76 343.16 200.63 406.59 270.11 433.42 365.9 392.56 442.07 327.91 446.18 270.59 439.09 201.67 420.79 99.82 346.39 94.94 295.16 83.97 270.23 58.96"/><g class="cls-3"><polygon class="cls-4" points="282.39 33.39 249.17 76.86 243.34 109.92 256.7 146.34 259.85 164.37 240.5 194 214.76 233.01 206.31 240.15 203.7 254.66 216.12 271.05 232.76 279.11 241.27 283.87 244.34 299.8 239.22 318.94 249.49 334.94 244.09 346.68 251.19 359.64 258.57 370.61 259.5 379.94 257.11 406.47 260.02 420.9 278.36 439.85 297.34 442.68 341.14 436.71 416.62 425.37 446.11 443.9 452.84 445.69 456.59 437.11 456.59 437.11 548.8 333.39 547.27 279.38 520.07 182.7 478.93 57.93 443.39 59.27 365.64 63.72 282.39 33.39"/></g><g id="m1elt0"><path class="cls-5" d="M270.11,433.42c-16.13-6.07-19.05-14.17-16.7-32.83a105.68,105.68,0,0,1,4.13-18.5c2.07-6.62.59-11.75-4.32-16.38a76.63,76.63,0,0,1-7.6-8.4c-5.4-6.88-5.67-12.86-1.21-20.44.53-.89,1.09-1.76,1.74-2.79a10.28,10.28,0,0,0-1-.92c-7.37-5.6-9.53-13.09-7.76-21.89a64.56,64.56,0,0,1,2.32-7.88,21,21,0,0,0,.77-12.26c-1.48-5.8-4.78-9.66-10.93-10.89-8.14-1.63-15.68-4.68-20.86-11.56-9-11.91-8.06-19.72-2.43-28.53s12.14-16.84,18.47-25.07c9.81-12.74,19.62-25.46,27.32-39.64,3.47-6.41,6.49-13.22,4.22-20.56-2-6.46-5.12-12.57-7.87-18.78-.33-.76-1.41-1.18-2.13-1.76-1.76-1.42-3.81-2.6-5.18-4.32a6.5,6.5,0,0,1-1.06-4.59c.09-.67,2.17-1.06,3.47-1.63-3.63-19.55,1.46-37.94,10.26-55.66.28-.58.48-1.2.72-1.81l.52-.22a19.33,19.33,0,0,1-.31,3.24c-3.7,13.44-6.56,27-6.05,41.07a50.7,50.7,0,0,0,6.31,23c2.23,4,4.1,8.31,5.95,12.56,4.17,9.54,4.17,19.23-1.26,28.06A327.11,327.11,0,0,1,240,202.4c-8.07,10.47-16.95,20.31-25.24,30.61a67.57,67.57,0,0,0-7.22,11.48c-2.4,4.65-1.74,9.23,1.27,13.64,5.57,8.17,13.55,13.05,22.38,16.73,6.57,2.75,10.3,7.7,12.23,14.32a30.32,30.32,0,0,1,.07,15.68c-.77,3.37-1.18,6.82-1.76,10.23l.71.27c.46-.5.94-1,1.38-1.5,3.22-3.85,7.83,11.64,12.62,13.43,7.94,3,13.14-9.1,19.83-3.87,7.35,5.75-11.51,15.78-1.77,14.62.46-.06,3.21-.2,3.68-.14,1.92.23,0,0,.25,2.18s-1.47,1-3.23,1.61c-1.58.59,12.73-1.93,11.16-1.31-6.92,2.73-.8,6.86-6.35,11.89A75.13,75.13,0,0,1,269,360.11a22.09,22.09,0,0,1-14.44,3.36c1,1.28,1.75,2.18,2.49,3,3.38,4,4.56,8.39,4.13,13.65-.73,8.92-1.49,17.92-1.15,26.84.74,19.16,5.17,20.09,22.55,22.37m5.11-89c-.56,0-.92,0-1.28,0-10,.67-20,.72-29.83-1.94a3.1,3.1,0,0,0-1.38-.12c-6.36,1.18-10.6,9.22-7.82,15.06,1,2.2,2.6,4.15,3.86,6.26s3.45,3.21,5.77,2.47c3.47-1.11,7.26-2.1,10.05-4.25C274.08,352.41,280.68,346.34,287.64,340.37Zm2.33-2.51c-5.7-3.68-11.48-7.2-17-11-4.89-3.37-9.45-7.21-14.35-10.56a25,25,0,0,0-7.15-3.24c-4.05-1.15-6.31,2.14-8.39,4.58-.77.91.12,3.74.9,5.38,2.11,4.48,5.93,7.24,10.39,9.14C265.77,337,277.93,337.31,290,337.86Z"/><path class="cls-6" d="M234.37,266.81c-.55,1.38-1,3.17-1.29,3.14-1.48-.2-3.33-.43-4.23-1.41s-1-3.29-.41-4c1.13-1.2,3.19-2.34,4.73-2.19a29.88,29.88,0,0,1,8.34,2.4c2.93,1.23,5.68,2.92,8.5,4.41l-.21.89Z"/><path class="cls-7" d="M300.1,336.1C291,343.93,282.32,351.89,273,359c-3.66,2.82-6.71,3.51-11.26,5-6.82,1.57-11.66-3-13.43-6a63.72,63.72,0,0,1-3.53-6.62c-3.64-7.66,4.33-16.42,12.67-18a4.31,4.31,0,0,1,1.81.16c12.87,3.49,26,3.43,39.12,2.55C298.89,336.08,299.36,336.1,300.1,336.1Z"/><path class="cls-8" d="M306.12,335.75c-16.16,1.88-32.42,4.09-48.73.08-6.35-1.56-12-4.41-15.81-9.91a13.25,13.25,0,0,1-2.36-7c-.17-6.15,4.54-8.58,10.18-7.91a33.59,33.59,0,0,1,10.22,2.76c7.25,3.41,14.16,7.53,21.4,11C289.27,328.64,297.72,332.09,306.12,335.75Z"/></g><g id="KnBigE"><path class="cls-9" d="M319.2,150.11c-.14,1-.31,1.91-.4,2.83a13.89,13.89,0,0,0,11.59,15.11,14.23,14.23,0,0,0,14.82-8.16,14.87,14.87,0,0,0,1-10.35c-.05-.15-.07-.32-.13-.57a49.94,49.94,0,0,1,15.24,4.34,19,19,0,0,1-5.53,8.6,34.57,34.57,0,0,1-8.65,5.49c1.43-.45,2.86-.87,4.27-1.34a72.77,72.77,0,0,0,18-8.56,39.34,39.34,0,0,0,7.58-6.46c.29-.33.56-.67.92-1.11-1.3-1-2.53-2-3.83-2.83a66.91,66.91,0,0,0-21.19-9.2,69.18,69.18,0,0,0-18.78-2.29,47.7,47.7,0,0,0-26,8.14c-4.16,2.82-8,6.17-11.87,9.35-2.34,1.9-4.58,3.93-6.87,5.91-.15.13-.29.27-.43.41l0,.18c.84,0,1.68-.07,2.52,0a16.52,16.52,0,0,1,7.72,2.42,52.22,52.22,0,0,0,14.64,5.94c1.81.43,3.69.59,5.54.86a2.82,2.82,0,0,0,.59,0c-8-2.27-14.72-6.86-21-12.56A115.79,115.79,0,0,1,319.2,150.11Zm69.07-47.77a90.11,90.11,0,0,0-16.76-3.25,115,115,0,0,0-19.28-.43,122.26,122.26,0,0,0-28.15,5c-9.05,2.74-18.21,5-27.39,7.26-4.42,1.07-8.82,2.27-13.22,3.43-.52.14-1,.38-1.53.55-3.13,1.07-3,4.9-1.26,6.57a6.21,6.21,0,0,0,3.37,1.63,19.51,19.51,0,0,0,6.1-.17A128.05,128.05,0,0,0,313,117.06c7.23-2.45,14.38-5.12,21.57-7.67a130.89,130.89,0,0,1,18.39-5.3,88.46,88.46,0,0,1,24.24-1.6c5.1.41,10.19.94,15.28,1.42l0-.1C391.09,103.32,389.7,102.78,388.27,102.34Z"/><path d="M319.93,168.79a2.82,2.82,0,0,1-.59,0c-1.85-.27-3.73-.43-5.54-.86A52.22,52.22,0,0,1,299.16,162a16.52,16.52,0,0,0-7.72-2.42c-.84,0-1.68,0-2.52,0l0-.18c.14-.14.28-.28.43-.41,2.29-2,4.53-4,6.87-5.91,3.91-3.18,7.71-6.53,11.87-9.35a47.7,47.7,0,0,1,26-8.14,69.18,69.18,0,0,1,18.78,2.29A66.91,66.91,0,0,1,374,147.1c1.3.88,2.53,1.86,3.83,2.83-.36.44-.63.78-.92,1.11a39.34,39.34,0,0,1-7.58,6.46,72.77,72.77,0,0,1-18,8.56c-1.41.47-2.84.89-4.27,1.34a34.57,34.57,0,0,0,8.65-5.49,19,19,0,0,0,5.53-8.6A49.94,49.94,0,0,0,346,149c.06.25.08.42.13.57a14.87,14.87,0,0,1-1,10.35,14.23,14.23,0,0,1-14.82,8.16,13.89,13.89,0,0,1-11.59-15.11c.09-.92.26-1.83.4-2.83a115.79,115.79,0,0,0-20.29,6.12C305.21,161.93,311.94,166.52,319.93,168.79Zm19.39-12.11a4.22,4.22,0,0,0,4.12-4.29,3.91,3.91,0,0,0-4-4,4.2,4.2,0,0,0-4,4.31A3.91,3.91,0,0,0,339.32,156.68Zm-15.14-3.13a1.83,1.83,0,0,0,1.86,1.77A1.91,1.91,0,0,0,328,153.4a1.75,1.75,0,0,0-1.81-1.74A1.94,1.94,0,0,0,324.18,153.55Z"/><path class="cls-10" d="M392.49,103.81c-1.4-.49-2.79-1-4.22-1.47a90.11,90.11,0,0,0-16.76-3.25,115,115,0,0,0-19.28-.43,122.26,122.26,0,0,0-28.15,5c-9.05,2.74-18.21,5-27.39,7.26-4.42,1.07-8.82,2.27-13.22,3.43-.52.14-1,.38-1.53.55-3.13,1.07-3,4.9-1.26,6.57a6.21,6.21,0,0,0,3.37,1.63,19.51,19.51,0,0,0,6.1-.17A128.05,128.05,0,0,0,313,117.06c7.23-2.45,14.38-5.12,21.57-7.67a130.89,130.89,0,0,1,18.39-5.3,88.46,88.46,0,0,1,24.24-1.6c5.1.41,10.19.94,15.28,1.42Z"/><path class="cls-9" d="M335.42,152.72a3.91,3.91,0,0,0,3.9,4,4.22,4.22,0,0,0,4.12-4.29,3.91,3.91,0,0,0-4-4A4.2,4.2,0,0,0,335.42,152.72Z"/><path class="cls-9" d="M326.17,151.66a1.94,1.94,0,0,0-2,1.89,1.83,1.83,0,0,0,1.86,1.77A1.91,1.91,0,0,0,328,153.4,1.75,1.75,0,0,0,326.17,151.66Z"/></g><path class="cls-11" d="M437.66,168.76l27.66-3.61c-2.85,10.55-5.75,20.2-7.95,30a14.14,14.14,0,0,0,1.36,9.12c4.89,8.83,10.38,17.33,16,26.59-8.49,1.27-16.15,2.61-23.87,3.49-3.66.42-4.46,1.77-3.91,5.31,2.52,16.41,4.54,32.9,7.22,49.28,3.25,19.85-3.46,36.59-15.48,51.68-16.7,21-38.11,36.31-60.74,50.1-30.28,18.47-62.28,33.42-95.42,46-7.8,3-15.81,3.4-23.54.44-41.47-15.94-81.68-34.49-117.86-60.62a276.37,276.37,0,0,1-32.39-27.8c-19.72-19.52-27.42-42.81-21-70.65,3.19-13.81,4.11-28.14,6.14-42.84L65.7,230.81c5.61-9.3,11.08-17.82,15.91-26.69a14.1,14.1,0,0,0,1.2-9.11c-2.19-9.68-5-19.21-7.93-29.83l28.31,3.63,5.39-39.95c1.16-8.52,2.23-17.05,3.5-25.56,1.2-8.07,5.73-12.12,13.9-12.09,10.94,0,21.88.61,32.81.6,32.67,0,63.59-6.77,91.28-24.92,5-3.29,9.21-7.81,13.7-11.85s8.81-4.25,12.88.05c17,17.94,38.76,26.5,62.2,31.7s47,4.44,70.66,4.4c14.65,0,17.36,2.24,19.37,16.56,2.71,19.34,5.32,38.71,8,58.06A29.68,29.68,0,0,0,437.66,168.76ZM270.08,67c-25.9,23.93-57.59,32.31-90.89,35.55-16.26,1.59-32.76.9-49.15.88-4.3,0-5.7,1.51-6.25,5.54Q111.35,200.76,98.6,292.48a44.61,44.61,0,0,0,4.79,27.18c8,15.92,20.59,28,34.37,38.72C175.63,387.81,218.48,408.12,263,425c4.63,1.75,11.12,1.23,15.9-.54a525.7,525.7,0,0,0,89.31-42.52c22.86-13.75,44.65-28.89,61.32-50.24,10.24-13.13,14.37-27.44,11.72-44.38-5.77-36.85-10.53-73.86-15.64-110.81-3-21.86-6.15-43.72-8.76-65.64-.71-6-3-7.72-8.78-7.43-9.36.46-18.76.16-28.15.06C339.69,103.07,302,94.74,270.08,67Z"/></svg>