<?xml version="1.0" encoding="utf-8"?>
<!-- Generator: Adobe Illustrator 22.0.1, SVG Export Plug-In . SVG Version: 6.00 Build 0)  -->
<svg version="1.1" id="Layer_1" xmlns="http://www.w3.org/2000/svg" xmlns:xlink="http://www.w3.org/1999/xlink" x="0px" y="0px"
	 viewBox="0 0 488.9 402.5" style="enable-background:new 0 0 488.9 402.5;" xml:space="preserve">
<style type="text/css">
	.st0{opacity:0.1;fill:#E7A354;enable-background:new    ;}
	.st1{fill:#FFFFFF;}
</style>
<title>homeless-deed-icon_1</title>
<g id="Layer_2_1_">
	<g id="Layer_1-2">
		<polygon class="st0" points="54.6,394.3 442,390.1 449.9,216 419,112.9 379.6,57.8 291.1,8.2 216.4,8.2 150.2,27.5 60.4,118.1 
			39,270 		"/>
		<path class="st1" d="M39.4,310.6H0c4.4-12,8.4-23,12.3-33.9c4.4-12,8.9-23.9,12.9-35.9c1-3.1,1,21.4-0.1,18.3
			c-7.3-20.8-15-41.4-22.5-62.2c-0.7-2-1.4-4-2.4-7h39.9c6.8-62.8,35.1-112.7,84-149.9C160.4,12.5,202-0.5,247.1,0
			C342.8,1,436.8,74.5,449,189.5h39.9c-5.2,14.4-10.1,27.9-15,41.4c-3.3,9-7.1,17.8-9.7,26.9c-1.2,4.3-1.4-19,0.1-14.8
			c7.3,21.3,15.3,42.3,23,63.4c0.4,1.1,0.7,2.2,1.2,4h-39.2c0,11,0.1,43.8,0,71.3c-0.1,15.2-5.8,20.8-20.8,20.7
			c-44.5-0.2-89.1-0.6-133.6-0.5c-78,0.1-156,0.3-234,0.6c-15.8,0-21.4-5.5-21.5-21.6c-0.1-34.9,0,2,0-32.8L39.4,310.6z
			 M433.8,386.1v-8.4c0-79.1,0-86.4,0-165.5c0-7.3-0.3-14.7-1.2-22c-8.6-72.5-45.2-125-109.6-156.6c-34-16.7-70.3-21.1-107.8-15.4
			C124.9,32.1,55.4,113.5,55.1,206.6c-0.2,81.1-0.1,90.3-0.1,171.4v8.1H433.8z"/>
	</g>
</g>
<g id="cOoePZ">
	<path class="st1" d="M144,335.4V202.1c0-1.7-1.4-3.1-3.1-3.1l0,0h-35.1c-1.7,0-3.1-1.4-3.1-3.1c0-0.9,0.4-1.7,1-2.3L242.2,65.4
		c1.2-1.1,3-1.1,4.2,0l52.3,48.4c1.3,1.2,3.2,1.1,4.4-0.2c0.5-0.6,0.8-1.3,0.8-2.1v-9.7c0-1.7,1.4-3.1,3.1-3.1c0,0,0,0,0,0h32.7
		c1.7,0,3.1,1.4,3.1,3.1v7.2c0,12.9,0.2,25.9-0.1,38.8c-0.3,4.3,1.5,8.6,4.9,11.3c12.2,10.8,24.2,22,37,33.7
		c1.3,1.2,1.3,3.1,0.2,4.4c-0.6,0.6-1.4,1-2.3,1H346c-1.7,0-3.1,1.4-3.1,3.1v5.3c0,34.6,0,89.2,0,123.9c0,1.6-0.1,3.3-0.2,4.9
		c-0.1,1.6-1.5,2.9-3.1,2.9H147.1C145.4,338.5,144,337.1,144,335.4z M246.5,176.2c-1,0.7-2.4,0.7-3.5,0.1c-4.8-3.1-9.4-6.5-14.4-8.9
		c-18-8.6-36.2-2.2-45.5,15.4c-8.6,16.3-6.7,39,7.2,51.7c16.2,14.8,34.4,27.5,51.9,40.9c1.1,0.8,3.9,0.7,5.1-0.1
		c17.2-13.1,35.2-25.4,50.9-40c13.4-12.5,16.3-29.6,10.1-47.3c-7.8-22.1-29-30.4-49.7-19.6C254.3,170.7,250.3,173.3,246.5,176.2
		L246.5,176.2z"/>
</g>
</svg>
