<svg id="Layer_1" data-name="Layer 1" xmlns="http://www.w3.org/2000/svg" xmlns:xlink="http://www.w3.org/1999/xlink" viewBox="0 0 507.15 125.6"><defs><style>.cls-1{fill:none;}.cls-2{fill:#012f49;}.cls-3{fill:#fff;}.cls-4{clip-path:url(#clip-path);}.cls-5{fill:#5cbda9;}.cls-6{fill:#ef6b3a;}.cls-7{fill:#1e8cf9;}</style><clipPath id="clip-path"><path class="cls-1" d="M28.25,21.67H65.72q12.68,0,19.32,1.94A33.91,33.91,0,0,1,100.35,33,44.36,44.36,0,0,1,110,49.41q3.33,9.72,3.33,24A66.67,66.67,0,0,1,110.25,95,44.74,44.74,0,0,1,99.38,113Q94,118.14,85,121.05q-6.78,2.15-18.14,2.15H28.25Zm20.5,17.18v67.24H64.06q8.58,0,12.4-1a18.94,18.94,0,0,0,8.27-4.22q3.28-3,5.37-9.8t2.08-18.6q0-11.77-2.08-18.07a23.38,23.38,0,0,0-5.82-9.84,19.63,19.63,0,0,0-9.49-4.78q-4.29-1-16.83-1ZM284,21.67h37.47q12.67,0,19.32,1.94A33.91,33.91,0,0,1,356.11,33a44.36,44.36,0,0,1,9.69,16.45q3.33,9.72,3.33,24A66.67,66.67,0,0,1,366,95,44.74,44.74,0,0,1,355.14,113q-5.34,5.19-14.41,8.1-6.78,2.15-18.14,2.15H284Zm20.5,17.18v67.24h15.31q8.58,0,12.39-1a18.93,18.93,0,0,0,8.28-4.22q3.28-3,5.37-9.8t2.07-18.6q0-11.77-2.07-18.07A23.38,23.38,0,0,0,340,44.59a19.63,19.63,0,0,0-9.49-4.78q-4.29-1-16.83-1Zm-186.9,84.34V21.67h75.27V38.84H138.1V61.35h51V78.46h-51v27.63h56.72v17.1Zm80.31,0V21.67H273.2V38.84H218.42V61.35h51V78.46h-51v27.63h56.72v17.1Z"/></clipPath></defs><title>Logo_design_FINAL-FINAL</title><rect class="cls-2" width="507.15" height="125"/><path class="cls-3" d="M379.81,123.37V21.85h20.5V123.37Z"/><path class="cls-3" d="M434.83,123.37V39H404.71V21.85h80.68V39H455.33v84.35Z"/><g class="cls-4"><rect class="cls-2" width="507.15" height="144.47"/><polygon class="cls-5" points="186.18 127.42 404.7 74.61 412.25 137.42 186.18 127.42"/><polygon class="cls-6" points="5.42 83.11 107 139 126 130 177.77 21.74 5.42 83.11"/><polygon class="cls-7" points="27.31 3.62 5.42 83.11 177.77 21.74 27.31 3.62"/><polygon class="cls-5" points="122.05 132.42 177.77 21.74 198.18 137.42 122.05 132.42"/><polygon class="cls-7" points="177.77 21.74 277.71 84.61 198.18 137.42 177.77 21.74"/><polygon class="cls-6" points="262.57 8.62 177.77 21.74 277.71 84.61 262.57 8.62"/><polygon class="cls-5" points="215.41 1.56 277.71 84.61 416.7 84.61 215.41 1.56"/><polygon class="cls-6" points="198.18 137.42 277.71 84.61 428.48 84.28 198.18 137.42"/><polygon class="cls-7" points="221.11 4.78 444.32 8.62 416.7 84.61 221.11 4.78"/><polygon class="cls-6" points="433.29 4.78 404.7 74.61 501.52 58.34 433.29 4.78"/><polygon class="cls-7" points="412.25 137.42 501.52 58.34 404.7 74.61 412.25 137.42"/><polygon class="cls-5" points="5.42 83.11 9.51 137.42 103.15 135.78 5.42 83.11"/></g></svg>