<?xml version="1.0" encoding="UTF-8"?>
<svg width="51px" height="42px" viewBox="0 0 51 42" version="1.1" xmlns="http://www.w3.org/2000/svg" xmlns:xlink="http://www.w3.org/1999/xlink">
    <!-- Generator: Sketch 50.2 (55047) - http://www.bohemiancoding.com/sketch -->
    <title>Group 4</title>
    <desc>Created with Sketch.</desc>
    <defs>
        <polygon id="path-1" points="0 0 51 0 51 44 0 44"></polygon>
        <polygon id="path-3" points="0 0.414207668 50.4017725 0.414207668 50.4017725 41.4707116 0 41.4707116"></polygon>
    </defs>
    <g id="Page-1" stroke="none" stroke-width="1" fill="none" fill-rule="evenodd">
        <g id="Group-4" transform="translate(0.000000, -2.000000)">
            <mask id="mask-2" fill="white">
                <use xlink:href="#path-1"></use>
            </mask>
            <g id="Clip-2"></g>
            <g id="Group-3" mask="url(#mask-2)">
                <g transform="translate(0.000000, 2.000000)">
                    <mask id="mask-4" fill="white">
                        <use xlink:href="#path-3"></use>
                    </mask>
                    <g id="Clip-2" stroke="none" fill="none"></g>
                    <path d="M25.1741301,41.4696323 C18.2656909,41.4696323 11.3577481,41.4721306 4.44980528,41.468633 C1.55627275,41.4676337 0.00352446062,39.8927452 0.00253165481,36.9538194 C-0.000943165519,28.2344732 -0.000943165519,19.5156266 0.00253165481,10.7962804 C0.00402086353,7.89232989 1.51804972,6.34991847 4.36938801,6.34342305 C7.2569637,6.33642799 10.1445394,6.34692059 13.0321151,6.33942587 C14.7615828,6.33492905 15.3880433,5.74384621 15.5458994,4.00557302 C15.721626,2.06744088 17.2460793,0.50304497 19.2520435,0.46707036 C23.1984466,0.395121139 27.1473317,0.399118318 31.0937348,0.462073886 C33.1960011,0.49555026 34.684217,2.05295111 34.8624256,4.16845806 C34.9880156,5.65890616 35.6884401,6.32943293 37.2034617,6.33742729 C40.1640086,6.35191706 43.1245556,6.33642799 46.0851025,6.34342305 C48.8237573,6.34941882 50.3899085,7.89632707 50.3928869,10.6278992 C50.402815,19.4571679 50.4043042,28.2869362 50.3983473,37.1162048 C50.3963617,39.8657643 48.7711386,41.4666344 46.00816,41.468633 C39.0634834,41.4726302 32.1188068,41.4696323 25.1741301,41.4696323" id="Fill-1" stroke="none" fill="#002E4A" fill-rule="evenodd" mask="url(#mask-4)"></path>
                </g>
            </g>
            <path d="M26.3417239,35.0801595 C32.166179,35.2012762 36.9320014,30.5880085 37.0865499,24.6788902 C37.2371483,18.9327379 32.4979892,14.0486807 26.6572399,13.9295333 C20.8796924,13.811863 16.069925,18.482735 15.9124138,24.3642821 C15.7578653,30.1320976 20.4545606,34.9580581 26.3417239,35.0801595 M38.9998903,24.5661433 C38.9712519,31.5259248 33.3991109,37.0372288 26.4281328,36.9998106 C19.5075188,36.9628848 13.978829,31.4161319 14.0000609,24.5306945 C14.0217866,17.5689437 19.6008404,11.983788 26.5170105,12.0000354 C33.4455248,12.0167751 39.0285287,17.6363949 38.9998903,24.5661433" id="Fill-4" fill="#FEFEFE" mask="url(#mask-2)"></path>
            <path d="M26.3417239,35.0801595 C32.166179,35.2012762 36.9320014,30.5880085 37.0865499,24.6788902 C37.2371483,18.9327379 32.4979892,14.0486807 26.6572399,13.9295333 C20.8796924,13.811863 16.069925,18.482735 15.9124138,24.3642821 C15.7578653,30.1320976 20.4545606,34.9580581 26.3417239,35.0801595 Z M38.9998903,24.5661433 C38.9712519,31.5259248 33.3991109,37.0372288 26.4281328,36.9998106 C19.5075188,36.9628848 13.978829,31.4161319 14.0000609,24.5306945 C14.0217866,17.5689437 19.6008404,11.983788 26.5170105,12.0000354 C33.4455248,12.0167751 39.0285287,17.6363949 38.9998903,24.5661433 Z" id="Stroke-6" mask="url(#mask-2)"></path>
            <path d="M43.9392603,17.9867265 C45.0398473,18.0183348 45.9544268,17.1353413 45.9719455,16.0239523 C45.9879184,14.9752701 45.1490815,14.0606683 44.1108406,13.9954124 C43.041169,13.9281173 42.0601214,14.8315032 42.0261145,15.9148526 C41.9905619,17.0537715 42.8227004,17.9551182 43.9392603,17.9867265 M40.0001277,15.9510492 C40.0181616,13.7252123 41.8457749,11.9510683 44.0691048,12.0010299 C46.3011941,12.0509914 48.0345155,13.8572535 47.9994781,16.0968553 C47.9665017,18.2324556 46.1363122,20.008129 43.9763587,19.999972 C41.7700323,19.9923248 39.982609,18.1712782 40.0001277,15.9510492" id="Fill-8" fill="#FEFEFE" mask="url(#mask-2)"></path>
            <path d="M43.9392603,17.9867265 C45.0398473,18.0183348 45.9544268,17.1353413 45.9719455,16.0239523 C45.9879184,14.9752701 45.1490815,14.0606683 44.1108406,13.9954124 C43.041169,13.9281173 42.0601214,14.8315032 42.0261145,15.9148526 C41.9905619,17.0537715 42.8227004,17.9551182 43.9392603,17.9867265 Z M40.0001277,15.9510492 C40.0181616,13.7252123 41.8457749,11.9510683 44.0691048,12.0010299 C46.3011941,12.0509914 48.0345155,13.8572535 47.9994781,16.0968553 C47.9665017,18.2324556 46.1363122,20.008129 43.9763587,19.999972 C41.7700323,19.9923248 39.982609,18.1712782 40.0001277,15.9510492 Z" id="Stroke-10" mask="url(#mask-2)"></path>
            <polygon id="Fill-12" fill="#FEFEFE" mask="url(#mask-2)" points="19 9 31 9 31 7 19 7"></polygon>
            <polygon id="Stroke-14" mask="url(#mask-2)" points="19 9 31 9 31 7 19 7"></polygon>
            <path d="M33.1228568,24 L34.9660888,24 C35.4407028,28.592034 30.857109,33.1970502 26,32.9934906 L26,31.1230274 C30.2163019,30.6374962 32.6378232,28.2768283 33.1228568,24" id="Fill-15" fill="#FEFEFE" mask="url(#mask-2)"></path>
            <path d="M32.1228568,21 L33.9660888,21 C34.4407028,25.592034 29.857109,30.1970502 25,29.9934906 L25,28.1230274 C29.2163019,27.6374962 31.6378232,25.2768283 32.1228568,21 Z" id="Stroke-16" mask="url(#mask-2)"></path>
        </g>
    </g>
</svg>