<?xml version="1.0" encoding="UTF-8"?>
<svg width="48px" height="79px" viewBox="0 0 48 79" version="1.1" xmlns="http://www.w3.org/2000/svg" xmlns:xlink="http://www.w3.org/1999/xlink">
    <!-- Generator: Sketch 50.2 (55047) - http://www.bohemiancoding.com/sketch -->
    <title>Group 3</title>
    <desc>Created with Sketch.</desc>
    <defs></defs>
    <g id="Page-1" stroke="none" stroke-width="1" fill="none" fill-rule="evenodd">
        <g id="Group-3" transform="translate(2.000000, 2.000000)" stroke="#002E4A" stroke-width="3">
            <path d="M3.71166123,37.1166123 C-1.23722041,16.4962721 -1.23722041,6.18610205 3.71166123,6.18610205 C8.66054287,6.18610205 11.9597973,16.4962721 13.6094245,37.1166123 C11.9597973,12.3722041 13.6094245,1.04497501e-15 18.5583062,0 C23.5071878,0 25.156815,12.3722041 23.5071878,37.1166123 C25.156815,14.8466449 28.4560694,4.12406803 33.4049511,4.94888164 C40.8282735,6.18610205 33.4049511,33.4049511 33.4049511,35.8793919 C33.4049511,38.3538327 33.4049511,30.9305103 38.3538327,30.9305103 C43.3027144,30.9305103 43.3027144,37.1166123 43.3027144,44.5399348 C43.3027144,51.9632572 48.251596,75.470445 25.9816286,75.470445 C11.1349837,75.470445 3.71166123,70.9339702 3.71166123,61.8610205 L3.71166123,37.1166123 Z" id="Path-4"></path>
            <path d="M21.3210857,65.5625972 C21.3210857,61.4385292 20.0838653,58.5516816 17.6094245,56.9020544 C13.8977633,54.4276136 28.7444082,50.7159523 33.6932898,48.2415115 C38.6421715,45.7670707 37.4049511,35.8693074 32.4560694,37.1065278 C27.5071878,38.3437482 7.71166123,42.7272836 6.47444082,47.0042911 C5.23722041,51.2812986 4,50.7159523 4,56.9020544" id="Path-5"></path>
            <path d="M35,47.2372204 C37.8868476,49.7116612 40.7736952,49.2992544 43.6605429,46" id="Path-6"></path>
        </g>
    </g>
</svg>