<?xml version="1.0" encoding="UTF-8"?>
<svg width="35px" height="41px" viewBox="0 0 35 41" version="1.1" xmlns="http://www.w3.org/2000/svg" xmlns:xlink="http://www.w3.org/1999/xlink">
    <!-- Generator: Sketch 50.2 (55047) - http://www.bohemiancoding.com/sketch -->
    <title>Fill 1</title>
    <desc>Created with Sketch.</desc>
    <defs></defs>
    <g id="Page-1" stroke="none" stroke-width="1" fill="none" fill-rule="evenodd">
        <g id="Artboard-1" transform="translate(-2.000000, -2.000000)" fill="#002E4A">
            <path d="M19.445389,19.5611807 L19.445389,13.7787887 C15.0372007,13.4261559 9.20552477,16.9193839 8.05488312,23.2408846 C6.90586942,29.5538644 11.0285136,35.6151509 17.2837846,36.8483827 C23.7305035,38.1193029 30.7880328,33.5691595 31.1966506,25.4418903 L37,25.4418903 C37,25.984604 36.8342737,27.515083 36.8052961,27.7441632 C35.5481859,37.6342688 26.0050883,44.5774651 16.255891,42.6897652 C8.47457103,41.1828825 2.38470077,34.3494743 2.0232938,26.7180541 C1.61402483,18.0795329 6.62879075,10.7646956 14.625327,8.45619593 C16.1559343,8.01442171 17.7672885,7.85645794 19.4020852,7.55658894 C19.4020852,5.81407149 19.3981781,3.79134858 19.3981781,2 C19.4655757,2 27.9990129,10.5605225 28.2305087,10.7142259 C25.1640845,13.8020573 22.3210163,16.6653965 19.445389,19.5611807 Z" id="Fill-1"></path>
        </g>
    </g>
</svg>