<?xml version="1.0" encoding="utf-8"?>
<!-- Generator: Adobe Illustrator 19.2.0, SVG Export Plug-In . SVG Version: 6.00 Build 0)  -->
<svg version="1.1" xmlns="http://www.w3.org/2000/svg" xmlns:xlink="http://www.w3.org/1999/xlink" x="0px" y="0px"
	 viewBox="0 0 3029.8 613.5" style="enable-background:new 0 0 3029.8 613.5;" xml:space="preserve">
<style type="text/css">
	.st0{fill:#EE1C2E;}
	.st1{fill:#00539F;}
</style>
<g id="Layer_1">
	<path id="XMLID_75_" class="st0" d="M185,173.2h194.2v42.3c-13.8-11.6-43.1-16.2-74.3-16.2v115.4c0,17.2,1.5,21.9,8.1,30.8h-61.8
		c6.6-8.9,8.1-13.5,8.1-30.8V199.2c-31.3,0-60.5,4.7-74.3,16.2V173.2z"/>
	<path id="XMLID_1_" class="st0" d="M185,173.2h194.2v42.3c-13.8-11.6-43.1-16.2-74.3-16.2v115.4c0,17.2,1.5,21.9,8.1,30.8h-61.8
		c6.6-8.9,8.1-13.5,8.1-30.8V199.2c-31.3,0-60.5,4.7-74.3,16.2V173.2z"/>
	<path id="XMLID_3_" class="st0" d="M185,173.2h194.2v42.3c-13.8-11.6-43.1-16.2-74.3-16.2v115.4c0,17.2,1.5,21.9,8.1,30.8h-61.8
		c6.6-8.9,8.1-13.5,8.1-30.8V199.2c-31.3,0-60.5,4.7-74.3,16.2V173.2z"/>
	<path id="XMLID_2_" class="st0" d="M185,173.2h194.2v42.3c-13.8-11.6-43.1-16.2-74.3-16.2v115.4c0,17.2,1.5,21.9,8.1,30.8h-61.8
		c6.6-8.9,8.1-13.5,8.1-30.8V199.2c-31.3,0-60.5,4.7-74.3,16.2V173.2z"/>
	<path id="XMLID_74_" class="st0" d="M472.4,319.3c19.9,0,53.2-4.7,66.2-16.2v42.3H397.1c6.9-8.1,8.1-13.5,8.1-30V203.2
		c0-16.5-1.2-21.9-8.1-30h134.1v42.3c-13-11.6-46.3-16.2-66.2-16.2h-15.8V245h11.6c11.3,0,28.8-0.5,40.4-4.7v34
		c-11.6-4.2-29-4.7-40.4-4.7h-11.6v49.7H472.4z"/>
	<path id="XMLID_73_" class="st0" d="M658,239.4c33.7,4.7,61.8,16.5,61.8,53.2c0,43.1-40.9,56.9-84.9,56.6
		c-30.8-0.2-56.9-3.2-76.1-10.8v-38.6c27.3,17.7,55.4,23.4,76.1,23.4c21.4,0,41.1-5.2,41.1-21.4s-18.2-20.2-55.6-25.8
		c-32.2-4.9-61.5-18.7-61.8-50.5c-0.2-42.8,40.4-55.9,79.2-55.9c25.1,0,49.5,3,71.9,10.3v41.6c-18.7-16.5-46.5-25.8-73.8-25.8
		c-18.5,0-35.9,5.9-35.9,19.7C599.9,232.5,625.8,234.9,658,239.4z"/>
	<path id="XMLID_72_" class="st0" d="M850.2,169.5c20.2,0,37.7,2.5,51.7,6.2v42.8c-13.8-14-30-22.9-51.4-22.9
		c-39.1,0-65.2,27.3-65.2,63.7c0,36.4,26.1,63.7,65.2,63.7c21.4,0,37.7-8.9,51.4-22.9V343c-14,3.7-31.5,6.4-51.7,6.4
		c-67.7,0-116.7-33.7-116.7-90.1C733.6,202.9,782.5,169.5,850.2,169.5z"/>
	<path class="st0" d="M1023.8,169.5c-69.9,0-109.8,40.6-109.8,89.8c0,49,39.9,89.8,109.8,89.8c69.9,0,109.8-40.9,109.8-89.8
		C1133.6,210.1,1093.7,169.5,1023.8,169.5z M1023.8,323c-35.2,0-58.1-29-58.1-63.7c0-34.9,22.9-63.7,58.1-63.7
		c35.2,0,58.1,28.8,58.1,63.7C1081.9,294,1059,323,1023.8,323z"/>
	<path id="XMLID_67_" class="st1" d="M1014.2,392.2h117.3c0.1,0,0.2,0,0.3,0.1l0,0c0,0,0.1,0,0.1,0.1c0.2,0.2,0.3,0.7-0.1,1
		c-0.1,0.1-0.2,0.1-0.3,0.2l-0.2,0.1c-13.6,6.2-31.9,25.1-31.9,25.1c-13.6,13-23.9,21.1-45.7,21.1H941.9c-0.3,0-0.5-0.3-0.5-0.6
		c0,0,0,0,0,0c0-0.2,0.1-0.4,0.2-0.5c0.1-0.1,0.2-0.2,0.4-0.2c12.3-6.9,30.6-25.9,30.6-25.9C980.1,403.8,995.1,392.2,1014.2,392.2"
		/>
	<path id="XMLID_66_" class="st1" d="M823.1,392.2h117.3c0.1,0,0.2,0,0.3,0.1l0,0c0,0,0.1,0,0.1,0.1c0.2,0.2,0.3,0.7-0.1,1
		c-0.1,0.1-0.2,0.1-0.3,0.2l-0.2,0.1c-13.6,6.2-31.9,25.1-31.9,25.1c-13.6,13-23.9,21.1-45.7,21.1H750.9c-0.3,0-0.5-0.3-0.5-0.6
		c0,0,0,0,0,0c0-0.2,0.1-0.4,0.2-0.5c0.1-0.1,0.2-0.2,0.4-0.2c12.3-6.9,30.6-25.9,30.6-25.9C789,403.8,804,392.2,823.1,392.2"/>
	<path id="XMLID_65_" class="st1" d="M632.1,392.2h117.3c0.1,0,0.2,0,0.3,0.1l0,0c0,0,0.1,0,0.1,0.1c0.2,0.2,0.3,0.7-0.1,1
		c-0.1,0.1-0.2,0.1-0.3,0.2l-0.2,0.1c-13.6,6.2-31.9,25.1-31.9,25.1c-13.6,13-23.9,21.1-45.7,21.1H559.8c-0.3,0-0.5-0.3-0.5-0.6
		c0,0,0,0,0,0c0-0.2,0.1-0.4,0.2-0.5c0.1-0.1,0.2-0.2,0.4-0.2c12.3-6.9,30.6-25.9,30.6-25.9C598,403.8,613,392.2,632.1,392.2"/>
	<path id="XMLID_58_" class="st1" d="M441,392.2h117.3c0.1,0,0.2,0,0.3,0.1l0,0c0,0,0.1,0,0.1,0.1c0.2,0.2,0.3,0.7-0.1,1
		c-0.1,0.1-0.2,0.1-0.3,0.2l-0.2,0.1c-13.6,6.2-31.9,25.1-31.9,25.1c-13.6,13-23.9,21.1-45.7,21.1H368.7c-0.3,0-0.5-0.3-0.5-0.6
		c0,0,0,0,0,0c0-0.2,0.1-0.4,0.2-0.5c0.1-0.1,0.2-0.2,0.4-0.2c12.3-6.9,30.6-25.9,30.6-25.9C406.9,403.8,421.9,392.2,441,392.2"/>
	<path id="XMLID_57_" class="st1" d="M249.9,392.2h117.3c0.1,0,0.2,0,0.3,0.1l0,0c0,0,0.1,0,0.1,0.1c0.2,0.2,0.3,0.7-0.1,1
		c-0.1,0.1-0.2,0.1-0.3,0.2l-0.2,0.1c-13.6,6.2-31.9,25.1-31.9,25.1c-13.6,13-23.9,21.1-45.7,21.1H177.6c-0.3,0-0.5-0.3-0.5-0.6
		c0,0,0,0,0,0c0-0.2,0.1-0.4,0.2-0.5c0.1-0.1,0.2-0.2,0.4-0.2c12.3-6.9,30.6-25.9,30.6-25.9C215.8,403.8,230.8,392.2,249.9,392.2"/>
	<g>
		<path class="st1" d="M1253.3,173.5h59.3c14.9,0,26.6,3.9,35.2,11.7c8.5,7.8,12.8,18.4,12.8,31.9c0,7.9-1.9,14.9-5.8,21
			c-3.9,6.1-8.5,10.6-13.9,13.4c9,3.4,16.1,8.8,21.3,16.1c5.2,7.3,7.7,16.5,7.7,27.7c0,15.6-4.9,27.9-14.6,36.9
			c-9.8,9-23,13.5-39.7,13.5h-62.2V173.5z M1311.8,244.3c8.9,0,15.7-2.1,20.4-6.4c4.8-4.3,7.1-10.6,7.1-18.9
			c0-8.4-2.4-14.7-7.1-18.9c-4.8-4.3-11.6-6.4-20.7-6.4h-36.7v50.7H1311.8z M1312.8,325.5c11.2,0,19.8-2.5,26-7.6
			c6.2-5.1,9.2-12.7,9.2-22.9c0-10.3-3-18-9.1-23c-6.1-5-14.8-7.5-26.1-7.5h-37.9v61H1312.8z"/>
		<path class="st1" d="M1408.4,343.1c-6.4-3-11.5-7.4-15.3-13c-3.8-5.7-5.7-12.3-5.7-19.8c0-13.3,5.1-23.6,15.3-30.9
			c10.2-7.3,23.7-10.9,40.6-10.9h27.1V262c0-8.2-2.9-14.7-8.6-19.6c-5.7-4.8-13.1-7.3-22.1-7.3c-7.7,0-14.4,1.9-20,5.7
			c-5.7,3.8-10,8.7-13.2,14.8l-16-9.6c4.3-8.5,10.6-15.5,19.1-21c8.4-5.5,18.5-8.2,30.1-8.2c15.4,0,27.8,4,37.3,12.1
			c9.4,8,14.1,19.2,14.1,33.5v83.4h-16.5l-3.7-19.2c-4.1,6.2-9.8,11.3-17.1,15.3c-7.3,3.9-15.4,5.9-24.2,5.9
			C1421.8,347.6,1414.8,346.1,1408.4,343.1z M1451.1,324.7c5.8-3,10.5-7.3,14-13.2c3.5-5.8,5.3-12.7,5.3-20.5v-4.9h-26.6
			c-11.3,0-20,2.1-26,6.2c-6,4.1-9,9.7-9,16.7c0,6.4,2.1,11.4,6.4,14.9c4.3,3.5,10,5.3,17.2,5.3
			C1439,329.2,1445.2,327.7,1451.1,324.7z"/>
		<path class="st1" d="M1520.8,218.7h20.7v23.9c3.6-7.9,9.1-14.1,16.6-18.8c7.5-4.7,15.6-7,24.5-7c12.6,0,22.6,3.7,30,11.2
			c7.4,7.5,11.1,17.8,11.1,31.1v86.6H1603V263c0-8.7-2.1-15.4-6.4-20c-4.3-4.7-10.5-7-18.7-7c-7.1,0-13.4,2.2-18.9,6.5
			c-5.6,4.3-9.9,10.5-12.9,18.6c-3,8-4.6,17.4-4.6,28v56.6h-20.7V218.7z"/>
		<path class="st1" d="M1676.1,272.8l49-54.1h25.8l-52.6,58.3l56.3,68.6H1729l-52.9-64.5v64.5h-20.7V171.5h20.7V272.8z"/>
	</g>
</g>
<g id="Artwork">
</g>
</svg>
