<?xml version="1.0" encoding="UTF-8"?>
<svg width="39px" height="37px" viewBox="0 0 39 37" version="1.1" xmlns="http://www.w3.org/2000/svg" xmlns:xlink="http://www.w3.org/1999/xlink">
    <!-- Generator: Sketch 50.2 (55047) - http://www.bohemiancoding.com/sketch -->
    <title>Group Copy</title>
    <desc>Created with Sketch.</desc>
    <defs></defs>
    <g id="Page-1" stroke="none" stroke-width="1" fill="none" fill-rule="evenodd">
        <g id="Group-Copy" transform="translate(0.000000, 2.000000)" stroke="#002E4A" stroke-width="3">
            <path d="M11,12.6 L11,28.6312195 C11,31.2770732 12.6666667,32.6 16,32.6 C19.3333333,32.6 23.3333333,32.6 28,32.6 C30,31.9749594 31.3333333,30.6520326 32,28.6312195 C32.6666667,26.6104065 34,23.2666667 36,18.6 C37.3333333,13.9333333 36.3333333,11.6 33,11.6 C29.6666667,11.6 26.648205,11.6 23.9446149,11.6 L26,3.6 C26.6666667,-0.4 25.3333333,-1.06666667 22,1.6 C18.6666667,4.26666667 15,7.93333333 11,12.6 Z" id="Path-3-Copy"></path>
            <rect id="Rectangle-Copy" fill="#002E4A" x="1.5" y="14.5" width="4" height="16"></rect>
        </g>
    </g>
</svg>