<?xml version="1.0" encoding="UTF-8"?>
<svg width="61px" height="78px" viewBox="0 0 61 78" version="1.1" xmlns="http://www.w3.org/2000/svg" xmlns:xlink="http://www.w3.org/1999/xlink">
    <!-- Generator: Sketch 50.2 (55047) - http://www.bohemiancoding.com/sketch -->
    <title>Fill 1</title>
    <desc>Created with Sketch.</desc>
    <defs></defs>
    <g id="Page-1" stroke="none" stroke-width="1" fill="none" fill-rule="evenodd">
        <g id="Artboard-1" transform="translate(-1.000000, -1.000000)" fill="#002E4A">
            <path d="M58.1769723,38.9798317 C58.2032202,38.9798317 58.2294681,38.9798317 58.2548411,38.9798317 C58.2548411,33.3032866 58.2662152,27.6258665 58.2443419,21.9484464 C58.2399673,20.9589007 58.1647233,19.9588559 58.0028613,18.984184 C57.7132595,17.2325743 56.9809432,16.5265059 55.3929454,16.3112731 C55.1050935,16.2727762 54.8102421,16.2806506 54.5188904,16.2815255 C52.988638,16.28765 51.6114984,17.6647897 51.5948747,19.2134156 C51.5651271,22.0385642 51.5563778,24.8637128 51.5143812,27.6888615 C51.4688848,30.751991 51.3962656,33.8151206 51.329771,36.8773752 C51.3262712,37.0462367 51.3140222,37.2325967 51.241403,37.37871 C50.9605506,37.9430398 49.9928781,38.3306338 49.2911843,38.1425238 C48.6131136,37.9614133 48.2403935,37.6350645 48.2255197,36.7321368 C48.184398,34.0268536 48.1004047,31.3224453 48.0767816,28.6171621 C48.0234109,22.7813797 47.9892886,16.9447224 47.9674154,11.10894 C47.9630407,9.98990466 47.4127098,9.14647224 46.7206403,8.36953449 C46.5307805,8.15692653 46.2193055,8.01343803 45.937578,7.93119462 C45.1212684,7.69146383 44.2857104,7.70983735 43.4606515,7.90232193 C42.2611226,8.18404936 41.5366807,8.98286035 41.4535623,10.198138 C41.3678192,11.4676612 41.3214479,12.7406842 41.3100738,14.0128323 C41.2470789,21.1356366 41.2007076,28.2584408 41.145587,35.3812451 C41.1447121,35.507235 41.1464619,35.6752215 41.0729678,35.7530903 C40.5873817,36.2614246 40.009928,36.6647672 39.2837362,36.467908 C38.8585203,36.3532922 38.4473032,36.0724397 38.1183296,35.7705889 C37.9643419,35.6288503 37.987965,35.2596298 37.9862152,34.9927762 C37.9582174,30.9471004 37.9529678,26.9014246 37.9144709,22.8566237 C37.8645999,17.710286 37.7867311,12.5648233 37.7272359,7.41936063 C37.7193615,6.72116657 37.5706235,6.09821649 37.0806627,5.55925967 C35.4156711,3.72715648 32.8320032,3.93626472 31.5187334,6.03609647 C31.3647457,6.28195177 31.2098831,6.58292765 31.2072583,6.86028043 C31.1381389,16.2115311 31.087393,25.5619069 31.0348972,34.9131576 C31.0305225,35.7058441 30.2535848,36.480157 29.4512741,36.5081548 C28.7994513,36.530903 28.3611114,36.1424341 27.9446448,35.7329669 C27.8142802,35.6043522 27.7092886,35.3803702 27.7075388,35.1992597 C27.6436689,27.5593718 27.5850486,19.919484 27.5535511,12.2787213 C27.5509263,11.6793943 27.4013133,11.2174313 27.0014704,10.7860909 C25.9690531,9.67580482 24.7564002,9.17272013 23.2480211,9.60318564 C21.9557497,9.97240606 21.0808198,10.983825 21.016075,12.1921032 C20.9732034,12.9996635 20.9373313,13.8089736 20.9320817,14.6174089 C20.8690867,24.4594952 20.8165909,34.3007067 20.7474715,44.142793 C20.7369723,45.7202916 20.6678529,47.2977902 20.6057328,48.8744139 C20.5961086,49.1132698 20.5366134,49.3967471 20.3948747,49.5752328 C19.892665,50.2051823 18.6275163,50.220931 18.0876846,49.6303533 C17.8103318,49.3276276 17.5391036,49.0170275 17.2853739,48.6941784 C15.3412797,46.2260011 13.390186,43.7639484 11.467965,41.2791475 C10.5440391,40.0848682 9.36375863,39.5677846 7.86937837,39.6727762 C6.46774068,39.7716433 5.34608056,40.7524397 5.08360159,42.1374537 C4.87711814,43.2311161 5.10022526,44.2609086 5.61818376,45.2084577 C8.30684332,50.1351879 10.9867536,55.0680426 13.7357833,59.9615255 C15.3920256,62.9082894 17.2416274,65.734313 19.4202028,68.3372294 C22.0686156,71.5036007 25.3119807,73.7049243 29.351532,74.6830959 C31.6141008,75.230802 33.9107917,75.4924061 36.2311058,75.6070219 C39.1209992,75.7505104 41.9776453,75.5606506 44.7905449,74.8545822 C49.9543812,73.558811 53.6360862,70.4431856 55.9292774,65.6800673 C57.4744036,62.4699495 58.1979706,59.0655973 58.1830968,55.4941335 C58.1603486,49.9890746 58.1769723,44.4848906 58.1769723,38.9798317 M35.8933829,79 C35.7507693,78.9772518 35.6090306,78.9483791 35.4655421,78.9335053 C33.6894345,78.7410208 31.8967031,78.6456534 30.1407188,78.3411778 C26.8693559,77.7733483 23.8211002,76.5974425 21.1236913,74.6096018 C18.5085259,72.6821312 16.4489409,70.2323275 14.5722163,67.6127874 C12.3708927,64.5382838 10.4460469,61.290544 8.64194147,57.9728099 C6.51673676,54.0671228 4.45102728,50.1290634 2.3590699,46.2041279 C1.62762851,44.8322378 1.44564309,43.3781043 1.66612543,41.8504767 C2.11933911,38.7059787 5.00398297,36.1581828 8.17910355,36.1923051 C10.3585539,36.2150533 12.2571518,36.979742 13.6937867,38.6692316 C14.6894569,39.8390129 15.6256319,41.060415 16.58543,42.2608188 C16.8444092,42.5845429 17.0937642,42.9161413 17.3474939,43.2433651 C17.4253627,43.095502 17.4253627,42.9808861 17.4253627,42.8662703 C17.4489858,38.6884801 17.4629847,34.5098149 17.496232,30.3320247 C17.546103,24.2048906 17.6125977,18.0768817 17.6624687,11.9497476 C17.671218,10.9155805 17.8969499,9.96715648 18.5024014,9.10622546 C20.4421209,6.34932137 23.5183744,5.43676949 26.6794962,6.46393718 C27.0032202,6.56892877 27.3234446,6.6809198 27.6891652,6.80515984 C27.754785,6.57592821 27.8107805,6.38956814 27.8624014,6.20233315 C28.4381052,4.12262479 29.5615152,2.46988222 31.5808534,1.56257992 C32.1626818,1.30185081 32.809255,1.18373528 33.4260806,1 L35.1768153,1 C35.2389353,1.02099832 35.3001804,1.05512058 35.3640503,1.06124509 C37.7727323,1.26772855 39.3633548,2.63699383 40.4955141,4.6615816 C40.609255,4.86544027 40.7264956,5.06754907 40.8262376,5.24253505 C41.3275724,5.04655076 41.7720368,4.83656758 42.2374995,4.70007852 C42.718711,4.55921481 43.2156711,4.46297252 43.7126313,4.39297813 C46.6935175,3.97038699 49.5440391,5.23116096 50.7085707,8.34853617 C51.2606515,9.82629277 51.3866414,11.3906674 51.5030071,12.9497925 C51.5152561,13.1239035 51.5423789,13.2971397 51.5677519,13.5097476 C51.8494793,13.417005 52.0638371,13.3531352 52.2729454,13.2752664 C53.5573425,12.7975547 54.8688624,12.6776893 56.2188792,12.9375435 C59.2015152,13.5114975 61.0213694,15.6856983 61.3477182,18.4653505 C61.5402028,20.106719 61.5891989,21.7725855 61.588324,23.427078 C61.5830744,34.0111049 61.5568265,44.5960067 61.5069555,55.1800337 C61.4990811,56.8345261 61.4780828,58.5126416 61.2024799,60.1356366 C60.9128781,61.8452496 60.4062937,63.5364891 59.8270901,65.1761077 C58.1979706,69.7887381 55.2643307,73.3899495 51.092665,75.9499944 C48.1887727,77.7322266 44.9672808,78.5266629 41.60755,78.8390129 C41.0029734,78.8958833 40.3983969,78.9466293 39.7929454,79 L35.8933829,79 Z" id="Fill-1"></path>
        </g>
    </g>
</svg>